<svg width="234" height="94" viewBox="0 0 234 94" fill="none" xmlns="http://www.w3.org/2000/svg">
<path d="M22.064 93.736C15.152 93.736 9.86133 91.9013 6.192 88.232C2.52267 84.4773 0.688 79.7413 0.688 74.024C0.688 71.0373 1.54133 68.0507 3.248 65.064C4.95467 62.0773 7.216 59.432 10.032 57.128C12.848 54.7387 15.8773 53.1173 19.12 52.264C19.2907 52.264 19.4187 52.264 19.504 52.264C19.5893 52.1787 19.6747 52.136 19.76 52.136C21.1253 52.136 21.808 52.776 21.808 54.056C21.808 54.824 21.296 55.4213 20.272 55.848C19.6747 56.104 19.0773 56.3173 18.48 56.488C17.8827 56.6587 17.2853 56.9147 16.688 57.256C13.9573 58.7067 11.44 60.84 9.136 63.656C6.832 66.3867 5.424 69.16 4.912 71.976C4.82667 72.3173 4.784 72.7013 4.784 73.128C4.784 73.4693 4.784 73.8533 4.784 74.28C4.784 78.888 6.27733 82.6853 9.264 85.672C12.336 88.5733 16.6027 90.024 22.064 90.024C27.0987 90.024 31.792 89.0853 36.144 87.208C40.5813 85.2453 44.6347 82.728 48.304 79.656C51.9733 76.4987 55.2587 73.0853 58.16 69.416C61.1467 65.7467 63.7067 62.2053 65.84 58.792C66.2667 58.1093 66.6507 57.4267 66.992 56.744C67.4187 56.0613 67.8027 55.3787 68.144 54.696C65.4987 54.8667 62.8107 55.0373 60.08 55.208C57.4347 55.2933 54.7893 55.336 52.144 55.336C51.0347 55.336 49.7547 55.2507 48.304 55.08C46.8533 54.824 45.5733 54.3547 44.464 53.672C43.44 52.9893 42.928 52.008 42.928 50.728C42.928 49.704 43.568 48.5093 44.848 47.144C46.128 45.6933 47.408 44.968 48.688 44.968C50.0533 44.968 50.736 45.608 50.736 46.888C50.736 47.7413 50.224 48.3387 49.2 48.68C48.176 48.936 47.664 49.448 47.664 50.216C47.664 50.8987 48.304 51.3253 49.584 51.496C50.864 51.5813 51.8027 51.624 52.4 51.624C55.3867 51.624 58.3307 51.5387 61.232 51.368C64.2187 51.112 67.1627 50.856 70.064 50.6C72.7947 44.3707 75.184 38.0133 77.232 31.528C79.3653 25.0427 81.2427 18.5573 82.864 12.072C76.1227 10.1093 68.8693 8.232 61.104 6.43999C53.424 4.648 46.0427 3.752 38.96 3.752C36.4853 3.752 33.968 3.88 31.408 4.13599C29.5307 4.392 27.44 4.904 25.136 5.672C22.832 6.44 20.656 7.464 18.608 8.744C16.56 9.93866 14.8533 11.3467 13.488 12.968C12.208 14.5893 11.568 16.3813 11.568 18.344C11.568 20.7333 12.592 22.824 14.64 24.616C16.688 26.3227 19.0347 27.176 21.68 27.176C23.1307 27.176 23.856 27.7733 23.856 28.968C23.856 30.1627 23.1307 30.76 21.68 30.76C19.2053 30.76 16.8587 30.248 14.64 29.224C12.4213 28.1147 10.6293 26.6213 9.264 24.744C7.984 22.8667 7.344 20.8187 7.344 18.6C7.344 16.1253 8.06933 13.864 9.52 11.816C11.056 9.768 13.0187 7.93333 15.408 6.312C17.7973 4.69066 20.3573 3.368 23.088 2.34399C25.8187 1.32 28.4213 0.679998 30.896 0.423996C33.2 0.167994 35.5893 0.0399933 38.064 0.0399933C45.4027 0.0399933 53.0827 0.935994 61.104 2.728C69.1253 4.51999 76.592 6.48266 83.504 8.616C83.6747 7.93333 83.8453 7.208 84.016 6.43999C84.272 5.67199 84.528 4.98933 84.784 4.392C85.2107 3.45333 85.8933 2.98399 86.832 2.98399C87.4293 2.98399 87.9413 3.15466 88.368 3.49599C88.7947 3.752 89.008 4.136 89.008 4.64799C89.008 5.50133 88.8373 6.39733 88.496 7.336C88.24 8.27466 88.0267 9.17066 87.856 10.024C90.416 10.8773 93.616 11.944 97.456 13.224C101.296 14.504 105.307 15.784 109.488 17.064C113.755 18.344 117.808 19.4533 121.648 20.392C125.488 21.2453 128.731 21.672 131.376 21.672C133.339 21.672 135.088 21.416 136.624 20.904C138.245 20.3067 139.483 19.1973 140.336 17.576C140.592 17.1493 140.848 16.808 141.104 16.552C141.36 16.296 141.787 16.168 142.384 16.168C142.981 16.168 143.536 16.3387 144.048 16.68C144.56 17.0213 144.816 17.448 144.816 17.96C144.816 18.0453 144.773 18.1733 144.688 18.344C144.688 18.4293 144.688 18.5147 144.688 18.6C143.835 20.7333 142.256 22.3973 139.952 23.592C137.733 24.7867 135.344 25.384 132.784 25.384C130.139 25.384 126.811 24.9147 122.8 23.976C118.789 23.0373 114.523 21.8853 110 20.52C105.563 19.1547 101.296 17.7893 97.2 16.424C93.1893 15.0587 89.8187 13.992 87.088 13.224C85.4667 19.4533 83.7173 25.6827 81.84 31.912C80.048 38.056 77.7867 44.1147 75.056 50.088C77.7867 49.9173 80.5173 49.704 83.248 49.448C85.9787 49.192 88.6667 49.064 91.312 49.064C92.7627 49.064 93.488 49.6613 93.488 50.856C93.488 52.136 92.7627 52.776 91.312 52.776C88.6667 52.776 85.6373 52.9467 82.224 53.288C78.896 53.6293 75.8667 53.8853 73.136 54.056C70.9173 58.408 68.144 62.888 64.816 67.496C61.5733 72.104 57.776 76.4133 53.424 80.424C49.1573 84.3493 44.3787 87.5493 39.088 90.024C33.8827 92.4987 28.208 93.736 22.064 93.736ZM88.043 89.512C85.227 89.512 83.2643 88.7867 82.155 87.336C81.131 85.8 80.619 83.9653 80.619 81.832C80.619 79.784 80.9603 77.6507 81.643 75.432C82.3257 73.2133 83.051 71.1653 83.819 69.288C84.6723 67.3253 85.355 65.8747 85.867 64.936C87.403 62.2907 89.1097 59.7307 90.987 57.256C92.9497 54.7813 95.0403 52.6053 97.259 50.728C99.4777 48.7653 101.739 47.272 104.043 46.248C106.432 45.1387 108.822 44.584 111.211 44.584C115.307 44.584 118.208 45.6933 119.915 47.912C121.622 50.0453 122.475 52.3493 122.475 54.824C122.475 55.6773 122.347 56.5733 122.091 57.512C121.75 58.792 121.323 59.9013 120.811 60.84C120.384 61.7787 119.83 62.248 119.147 62.248C118.55 62.248 117.995 61.9493 117.483 61.352C116.971 60.7547 116.8 60.1573 116.971 59.56C117.142 58.9627 117.355 58.3653 117.611 57.768C117.952 57.1707 118.166 56.5733 118.251 55.976C118.336 55.5493 118.379 55.1653 118.379 54.824C118.464 54.4827 118.507 54.1413 118.507 53.8C118.507 51.496 117.739 49.9173 116.203 49.064C114.752 48.1253 113.174 47.656 111.467 47.656C109.504 47.656 107.456 48.2107 105.323 49.32C103.275 50.4293 101.483 51.7093 99.947 53.16C98.0697 55.0373 96.1923 57.2133 94.315 59.688C92.4377 62.1627 90.8163 64.68 89.451 67.24C89.2803 67.6667 88.811 68.6907 88.043 70.312C87.3603 71.9333 86.6777 73.768 85.995 75.816C85.3977 77.7787 85.099 79.6133 85.099 81.32C85.099 82.5147 85.355 83.5387 85.867 84.392C86.4643 85.2453 87.4457 85.672 88.811 85.672C90.2617 85.672 91.9257 84.9893 93.803 83.624C95.7657 82.2587 97.7283 80.5947 99.691 78.632C101.739 76.584 103.574 74.6213 105.195 72.744C106.816 70.8667 108.011 69.416 108.779 68.392C109.291 67.7093 109.76 66.984 110.187 66.216C110.699 65.3627 111.211 64.5947 111.723 63.912C111.979 63.5707 112.491 63.4 113.259 63.4C113.942 63.4 114.624 63.6133 115.307 64.04C116.075 64.3813 116.374 64.8933 116.203 65.576C115.862 66.1733 115.222 67.496 114.283 69.544C113.43 71.5067 112.619 73.6827 111.851 76.072C111.083 78.376 110.699 80.424 110.699 82.216C110.699 84.4347 111.382 85.7147 112.747 86.056C113.686 86.2267 114.667 85.8853 115.691 85.032C116.8 84.1787 117.782 83.1973 118.635 82.088C119.574 80.9787 120.256 80.168 120.683 79.656C122.475 77.2667 124.139 74.8347 125.675 72.36C127.296 69.8 128.918 67.4107 130.539 65.192C131.051 64.5093 131.648 64.168 132.331 64.168C133.526 64.168 134.123 64.808 134.123 66.088C134.123 66.5147 133.568 67.624 132.459 69.416C131.35 71.1227 129.984 73.0853 128.363 75.304C126.827 77.5227 125.376 79.528 124.011 81.32C122.646 83.112 121.11 84.8613 119.403 86.568C117.696 88.2747 115.52 89.128 112.875 89.128C110.4 89.128 108.694 88.5733 107.755 87.464C106.902 86.3547 106.475 85.1173 106.475 83.752C106.475 82.5573 106.603 81.32 106.859 80.04C107.115 78.6747 107.371 77.5227 107.627 76.584L107.115 76.2C106.347 77.1387 105.195 78.3333 103.659 79.784C102.123 81.2347 100.416 82.728 98.539 84.264C96.6617 85.7147 94.7843 86.952 92.907 87.976C91.115 89 89.4937 89.512 88.043 89.512ZM150.204 36.776C149.777 36.776 149.308 36.6907 148.796 36.52C148.284 36.3493 148.028 35.9653 148.028 35.368C148.028 34.9413 148.156 34.5573 148.412 34.216C149.095 32.936 150.332 31.8267 152.124 30.888C154.001 29.9493 155.409 29.48 156.348 29.48C156.775 29.48 157.244 29.608 157.756 29.864C158.268 30.0347 158.524 30.4187 158.524 31.016C158.524 32.4667 157.628 33.7893 155.836 34.984C154.129 36.1787 152.252 36.776 150.204 36.776ZM135.868 89.128C132.967 89.128 130.663 88.3173 128.956 86.696C127.249 85.0747 126.396 82.8133 126.396 79.912C126.396 78.2053 126.567 76.5413 126.908 74.92C127.249 73.2133 127.719 71.5493 128.316 69.928C128.657 68.9893 129.34 67.4533 130.364 65.32C131.473 63.1013 132.753 60.7973 134.204 58.408C135.655 55.9333 137.063 53.8427 138.428 52.136C139.793 50.4293 140.988 49.576 142.012 49.576C142.439 49.576 142.993 49.7467 143.676 50.088C144.444 50.344 144.828 50.7707 144.828 51.368C144.828 51.7093 144.657 52.136 144.316 52.648C142.353 54.8667 140.305 57.512 138.172 60.584C136.039 63.656 134.247 66.856 132.796 70.184C131.345 73.512 130.62 76.712 130.62 79.784C130.62 83.7093 132.497 85.672 136.252 85.672C138.812 85.672 141.372 84.4347 143.932 81.96C146.577 79.4853 149.479 76.1573 152.636 71.976C153.575 70.7813 154.385 69.6293 155.068 68.52C155.836 67.3253 156.519 66.3013 157.116 65.448C157.713 64.8507 158.353 64.552 159.036 64.552C160.06 64.552 160.572 64.936 160.572 65.704C160.572 66.6427 159.889 68.136 158.524 70.184C157.159 72.232 155.623 74.3653 153.916 76.584C150.588 80.68 147.687 83.7947 145.212 85.928C142.737 88.0613 139.623 89.128 135.868 89.128ZM161.469 93.608C159.762 93.608 158.482 93.0533 157.629 91.944C156.776 90.92 156.221 89.6827 155.965 88.232C155.709 86.7813 155.581 85.5013 155.581 84.392C155.581 80.8933 156.221 76.968 157.501 72.616C158.781 68.264 160.274 63.912 161.981 59.56C163.773 55.208 165.394 51.3253 166.845 47.912C165.309 47.9973 163.602 48.2533 161.725 48.68C159.933 49.1067 158.312 49.32 156.861 49.32C155.666 49.32 155.069 48.808 155.069 47.784C155.069 46.3333 155.837 45.48 157.373 45.224C159.25 44.7973 161.17 44.456 163.133 44.2C165.096 43.944 167.016 43.7307 168.893 43.56C169.405 42.6213 170.13 41.1707 171.069 39.208C172.008 37.2453 173.074 35.1547 174.269 32.936C175.464 30.632 176.616 28.584 177.725 26.792C178.92 24.9147 179.901 23.592 180.669 22.824C181.181 22.312 181.736 22.056 182.333 22.056C182.93 22.056 183.442 22.2267 183.869 22.568C184.296 22.9093 184.509 23.336 184.509 23.848C184.509 24.104 184.381 24.4453 184.125 24.872C181.992 27.5173 180.2 30.4187 178.749 33.576C177.298 36.7333 175.848 39.8053 174.397 42.792C175.933 42.6213 177.554 42.4507 179.261 42.28C180.968 42.1093 182.632 42.024 184.253 42.024C184.765 42.024 185.234 42.1093 185.661 42.28C186.173 42.4507 186.429 42.8347 186.429 43.432C186.429 43.944 186.173 44.3707 185.661 44.712C185.234 45.0533 184.722 45.3093 184.125 45.48C182.248 45.8213 180.285 46.12 178.237 46.376C176.274 46.5467 174.312 46.76 172.349 47.016C171.24 49.576 169.96 52.4347 168.509 55.592C167.058 58.7493 165.65 62.0347 164.285 65.448C163.005 68.776 161.938 72.0187 161.085 75.176C160.232 78.3333 159.805 81.192 159.805 83.752C159.805 84.1787 159.805 84.904 159.805 85.928C159.89 86.8667 160.104 87.72 160.445 88.488C160.786 89.256 161.298 89.64 161.981 89.64C163.432 89.64 164.456 89.256 165.053 88.488C165.65 87.72 166.333 87.336 167.101 87.336C167.698 87.336 168.21 87.5067 168.637 87.848C169.149 88.1893 169.405 88.616 169.405 89.128C169.405 89.896 168.893 90.6213 167.869 91.304C166.93 91.9867 165.821 92.5413 164.541 92.968C163.261 93.3947 162.237 93.608 161.469 93.608ZM209.238 89.896C207.105 89.896 205.227 89.2987 203.606 88.104C202.07 86.9093 201.302 85.1173 201.302 82.728C201.302 79.4 202.198 75.9013 203.99 72.232C205.782 68.5627 207.958 65.0213 210.518 61.608C213.078 58.1093 215.467 55.0373 217.686 52.392C219.051 50.9413 219.734 49.704 219.734 48.68C219.734 47.912 219.35 47.4853 218.582 47.4C218.326 47.3147 217.985 47.272 217.558 47.272C215.681 47.272 213.803 47.9547 211.926 49.32C210.049 50.6853 208.513 51.8373 207.318 52.776C203.393 55.848 199.595 59.432 195.926 63.528C192.257 67.624 189.227 71.3787 186.838 74.792C185.985 76.072 185.259 77.6507 184.662 79.528C184.065 81.32 183.51 83.0267 182.998 84.648C182.571 86.2693 182.059 87.4213 181.462 88.104C180.609 89.128 179.67 89.64 178.646 89.64C177.878 89.64 177.238 89.384 176.726 88.872C176.214 88.2747 175.958 87.5493 175.958 86.696C175.958 86.184 176.001 85.8 176.086 85.544C177.11 81.5333 178.433 77.1387 180.054 72.36C181.761 67.496 183.553 62.7173 185.43 58.024C187.393 53.2453 189.27 48.9787 191.062 45.224C192.342 42.4933 193.835 39.4213 195.542 36.008C197.334 32.5093 199.339 29.0533 201.558 25.64C203.862 22.1413 206.379 19.0267 209.11 16.296C211.926 13.5653 214.998 11.56 218.326 10.28C219.606 9.768 220.886 9.51199 222.166 9.51199C223.873 9.51199 225.323 9.93866 226.518 10.792C227.798 11.6453 228.438 13.0533 228.438 15.016C228.438 16.8933 227.755 19.0693 226.39 21.544C225.025 23.9333 223.318 26.3653 221.27 28.84C219.222 31.3147 217.131 33.6187 214.998 35.752C212.865 37.8853 210.987 39.6347 209.366 41C205.611 44.072 202.027 46.9307 198.614 49.576C195.286 52.2213 192.47 54.952 190.166 57.768C188.63 62.0347 187.563 65.576 186.966 68.392C189.355 65.1493 192.257 61.864 195.67 58.536C199.083 55.1227 202.283 52.264 205.27 49.96C206.891 48.68 208.897 47.272 211.286 45.736C213.675 44.2 216.065 43.432 218.454 43.432C220.161 43.432 221.526 43.8587 222.55 44.712C223.574 45.5653 224.086 46.7173 224.086 48.168C224.086 50.1307 223.105 52.264 221.142 54.568C219.179 56.872 217.003 59.688 214.614 63.016C212.31 66.344 210.305 69.7147 208.598 73.128C206.977 76.5413 206.166 79.656 206.166 82.472C206.166 83.8373 206.55 84.8187 207.318 85.416C208.086 86.0133 208.982 86.312 210.006 86.312C211.542 86.312 212.95 85.8 214.23 84.776C216.363 83.1547 218.326 81.2347 220.118 79.016C221.995 76.7973 223.702 74.5787 225.238 72.36C226.774 70.1413 228.097 68.2213 229.206 66.6C230.059 65.2347 231.041 64.552 232.15 64.552C233.003 64.552 233.43 65.0213 233.43 65.96C233.43 66.216 233.387 66.5147 233.302 66.856C233.217 67.1973 233.046 67.5813 232.79 68.008C231.595 70.1413 230.017 72.488 228.054 75.048C226.177 77.608 224.257 80.04 222.294 82.344C220.331 84.5627 218.539 86.2267 216.918 87.336C214.699 89.0427 212.139 89.896 209.238 89.896ZM219.99 13.224C217.345 14.248 214.742 16.04 212.182 18.6C209.707 21.16 207.275 24.232 204.886 27.816C202.582 31.4 200.406 35.1973 198.358 39.208C196.31 43.1333 194.475 47.016 192.854 50.856C195.67 48.296 198.187 46.12 200.406 44.328C202.71 42.536 204.971 40.6587 207.19 38.696C209.153 36.9893 211.243 34.8987 213.462 32.424C215.766 29.864 217.857 27.2187 219.734 24.488C221.697 21.7573 223.062 19.24 223.83 16.936C224.001 16.5093 224.129 16.1253 224.214 15.784C224.299 15.3573 224.342 15.016 224.342 14.76C224.342 13.3947 223.659 12.712 222.294 12.712C221.953 12.712 221.569 12.7547 221.142 12.84C220.801 12.9253 220.417 13.0533 219.99 13.224Z" fill="url(#paint0_linear_1_10)"/>
<defs>
<linearGradient id="paint0_linear_1_10" x1="112" y1="-26" x2="112" y2="143" gradientUnits="userSpaceOnUse">
<stop offset="0.34375" stop-color="#313BAC"/>
<stop offset="1" stop-color="#EDF2F8" stop-opacity="0"/>
</linearGradient>
</defs>
</svg>
